<svg xmlns="http://www.w3.org/2000/svg" version="1.1" xmlns:xlink="http://www.w3.org/1999/xlink" xmlns:svgjs="http://svgjs.dev/svgjs" width="1440" height="700" preserveAspectRatio="none" viewBox="0 0 1440 700"><g mask="url(&quot;#SvgjsMask1010&quot;)" fill="none"><rect width="1440" height="700" x="0" y="0" fill="rgba(4, 6, 59, 1)"></rect><path d="M1692.91 342.8C1572.97 344.6 1485.78 498.72 1236.18 489.8 986.58 480.88 949.48-5.72 779.45-61.77" stroke="rgba(51,121,194,0.58)" stroke-width="2"></path><path d="M1622.67 391.9C1448.49 392.62 1220.33 542.17 940.14 531.9 659.95 521.63 747.31 21.14 598.87-65.94" stroke="rgba(51,121,194,0.58)" stroke-width="2"></path><path d="M1649.69 321.8C1500.37 336.03 1412.6 655.28 1147.97 650.8 883.33 646.32 840.77 59.5 646.24-15.7" stroke="rgba(51,121,194,0.58)" stroke-width="2"></path><path d="M1691.61 497.34C1581.02 496.9 1474.79 409.84 1257.97 409.84 1041.16 409.84 1072.44 513.61 824.34 497.34 576.23 481.07 558.61-12.38 390.7-76.98" stroke="rgba(51,121,194,0.58)" stroke-width="2"></path><path d="M1660.29 295.09C1477.35 300.14 1336.19 572.7 981.07 568.09 625.95 563.48 536.95-63.97 301.85-120.48" stroke="rgba(51,121,194,0.58)" stroke-width="2"></path></g><defs><mask id="SvgjsMask1010"><rect width="1440" height="700" fill="#ffffff"></rect></mask></defs></svg>