<svg xmlns="http://www.w3.org/2000/svg" version="1.1" xmlns:xlink="http://www.w3.org/1999/xlink" xmlns:svgjs="http://svgjs.dev/svgjs" width="1440" height="500" preserveAspectRatio="none" viewBox="0 0 1440 500"><g mask="url(&quot;#SvgjsMask1018&quot;)" fill="none"><rect width="1440" height="500" x="0" y="0" fill="rgba(4, 6, 59, 1)"></rect><path d="M922.09-85.04C771.32-76.51 673.39 190.89 388.17 197.5 102.96 204.11-8.93 316.76-145.74 317.5" stroke="rgba(51,121,194,0.58)" stroke-width="2"></path><path d="M999.47-43.36C829.94-35.9 696.19 249.84 387.47 250.2 78.75 250.56-68.12 120.91-224.53 120.2" stroke="rgba(51,121,194,0.58)" stroke-width="2"></path><path d="M730.04-3.94C617.19 0.37 547.38 172.36 318.75 182.91 90.11 193.46 23.3 391.55-92.55 397.91" stroke="rgba(51,121,194,0.58)" stroke-width="2"></path><path d="M948.63-50.16C839.74-29.07 895.3 234.5 620.13 248.01 344.96 261.52 134.46 440.97-36.86 443.01" stroke="rgba(51,121,194,0.58)" stroke-width="2"></path><path d="M1050.4-1.64C896.91-1.55 754.59 61.7 439.96 64.01 125.33 66.32-6.55 299.75-170.48 304.01" stroke="rgba(51,121,194,0.58)" stroke-width="2"></path></g><defs><mask id="SvgjsMask1018"><rect width="1440" height="500" fill="#ffffff"></rect></mask></defs></svg>