<svg xmlns="http://www.w3.org/2000/svg" version="1.1" xmlns:xlink="http://www.w3.org/1999/xlink" xmlns:svgjs="http://svgjs.dev/svgjs" width="1440" height="700" preserveAspectRatio="none" viewBox="0 0 1440 700"><g mask="url(&quot;#SvgjsMask1016&quot;)" fill="none"><rect width="1440" height="700" x="0" y="0" fill="rgba(249, 253, 255, 1)"></rect><path d="M1440 0L1329.16 0L1440 315.77z" fill="rgba(255, 255, 255, .1)"></path><path d="M1329.16 0L1440 315.77L1440 515.5899999999999L1095.63 0z" fill="rgba(255, 255, 255, .075)"></path><path d="M1095.63 0L1440 515.5899999999999L1440 603.8599999999999L1044.68 0z" fill="rgba(255, 255, 255, .05)"></path><path d="M1044.68 0L1440 603.8599999999999L1440 641.6099999999999L330.0100000000001 0z" fill="rgba(255, 255, 255, .025)"></path><path d="M0 700L93.67 700L0 489.65999999999997z" fill="rgba(0, 0, 0, .1)"></path><path d="M0 489.65999999999997L93.67 700L482.24 700L0 396.97999999999996z" fill="rgba(0, 0, 0, .075)"></path><path d="M0 396.98L482.24 700L821.5 700L0 329.84000000000003z" fill="rgba(0, 0, 0, .05)"></path><path d="M0 329.84000000000003L821.5 700L875.75 700L0 326.65000000000003z" fill="rgba(0, 0, 0, .025)"></path></g><defs><mask id="SvgjsMask1016"><rect width="1440" height="700" fill="#ffffff"></rect></mask></defs></svg>