<svg xmlns="http://www.w3.org/2000/svg" version="1.1" xmlns:xlink="http://www.w3.org/1999/xlink" xmlns:svgjs="http://svgjs.dev/svgjs" width="1440" height="900" preserveAspectRatio="none" viewBox="0 0 1440 900"><g mask="url(&quot;#SvgjsMask1020&quot;)" fill="none"><rect width="1440" height="900" x="0" y="0" fill="rgba(255, 255, 255, 1)"></rect><path d="M47.84 352.48L91.15 377.48L91.15 427.48L47.84 452.48L4.54 427.48L4.54 377.48zM4.54 427.48L47.84 452.48L47.84 502.48L4.54 527.48L-38.76 502.48L-38.76 452.48zM47.84 502.48L91.15 527.48L91.15 577.48L47.84 602.48L4.54 577.48L4.54 527.48zM4.54 577.48L47.84 602.48L47.84 652.48L4.54 677.48L-38.76 652.48L-38.76 602.48zM4.54 877.48L47.84 902.48L47.84 952.48L4.54 977.48L-38.76 952.48L-38.76 902.48zM91.15 -22.52L134.45 2.48L134.45 52.48L91.15 77.48L47.84 52.48L47.84 2.48zM91.15 127.48L134.45 152.48L134.45 202.48L91.15 227.48L47.84 202.48L47.84 152.48zM134.45 352.48L177.75 377.48L177.75 427.48L134.45 452.48L91.15 427.48L91.15 377.48zM91.15 427.48L134.45 452.48L134.45 502.48L91.15 527.48L47.84 502.48L47.84 452.48zM91.15 727.48L134.45 752.48L134.45 802.48L91.15 827.48L47.84 802.48L47.84 752.48zM177.75 277.48L221.05 302.48L221.05 352.48L177.75 377.48L134.45 352.48L134.45 302.48zM221.05 352.48L264.36 377.48L264.36 427.48L221.05 452.48L177.75 427.48L177.75 377.48zM221.05 802.48L264.36 827.48L264.36 877.48L221.05 902.48L177.75 877.48L177.75 827.48zM177.75 877.48L221.05 902.48L221.05 952.48L177.75 977.48L134.45 952.48L134.45 902.48zM307.66 52.48L350.96 77.48L350.96 127.48L307.66 152.48L264.36 127.48L264.36 77.48zM307.66 352.48L350.96 377.48L350.96 427.48L307.66 452.48L264.36 427.48L264.36 377.48zM307.66 502.48L350.96 527.48L350.96 577.48L307.66 602.48L264.36 577.48L264.36 527.48zM307.66 652.48L350.96 677.48L350.96 727.48L307.66 752.48L264.36 727.48L264.36 677.48zM307.66 802.48L350.96 827.48L350.96 877.48L307.66 902.48L264.36 877.48L264.36 827.48zM350.96 -22.52L394.26 2.48L394.26 52.48L350.96 77.48L307.66 52.48L307.66 2.48zM394.26 352.48L437.57 377.48L437.57 427.48L394.26 452.48L350.96 427.48L350.96 377.48zM350.96 427.48L394.26 452.48L394.26 502.48L350.96 527.48L307.66 502.48L307.66 452.48zM350.96 727.48L394.26 752.48L394.26 802.48L350.96 827.48L307.66 802.48L307.66 752.48zM480.87 202.48L524.17 227.48L524.17 277.48L480.87 302.48L437.57 277.48L437.57 227.48zM480.87 502.48L524.17 527.48L524.17 577.48L480.87 602.48L437.57 577.48L437.57 527.48zM480.87 652.48L524.17 677.48L524.17 727.48L480.87 752.48L437.57 727.48L437.57 677.48zM480.87 802.48L524.17 827.48L524.17 877.48L480.87 902.48L437.57 877.48L437.57 827.48zM567.47 202.48L610.77 227.48L610.77 277.48L567.47 302.48L524.17 277.48L524.17 227.48zM524.17 277.48L567.47 302.48L567.47 352.48L524.17 377.48L480.87 352.48L480.87 302.48zM567.47 352.48L610.77 377.48L610.77 427.48L567.47 452.48L524.17 427.48L524.17 377.48zM567.47 502.48L610.77 527.48L610.77 577.48L567.47 602.48L524.17 577.48L524.17 527.48zM567.47 652.48L610.77 677.48L610.77 727.48L567.47 752.48L524.17 727.48L524.17 677.48zM524.17 877.48L567.47 902.48L567.47 952.48L524.17 977.48L480.87 952.48L480.87 902.48zM610.77 -22.52L654.08 2.48L654.08 52.48L610.77 77.48L567.47 52.48L567.47 2.48zM654.08 652.48L697.38 677.48L697.38 727.48L654.08 752.48L610.77 727.48L610.77 677.48zM610.77 877.48L654.08 902.48L654.08 952.48L610.77 977.48L567.47 952.48L567.47 902.48zM697.38 -22.52L740.68 2.48L740.68 52.48L697.38 77.48L654.08 52.48L654.08 2.48zM740.68 52.48L783.99 77.48L783.99 127.48L740.68 152.48L697.38 127.48L697.38 77.48zM697.38 427.48L740.68 452.48L740.68 502.48L697.38 527.48L654.08 502.48L654.08 452.48zM740.68 802.48L783.99 827.48L783.99 877.48L740.68 902.48L697.38 877.48L697.38 827.48zM783.99 -22.52L827.29 2.48L827.29 52.48L783.99 77.48L740.68 52.48L740.68 2.48zM783.99 277.48L827.29 302.48L827.29 352.48L783.99 377.48L740.68 352.48L740.68 302.48zM827.29 352.48L870.59 377.48L870.59 427.48L827.29 452.48L783.99 427.48L783.99 377.48zM827.29 802.48L870.59 827.48L870.59 877.48L827.29 902.48L783.99 877.48L783.99 827.48zM913.89 52.48L957.2 77.48L957.2 127.48L913.89 152.48L870.59 127.48L870.59 77.48zM913.89 202.48L957.2 227.48L957.2 277.48L913.89 302.48L870.59 277.48L870.59 227.48zM913.89 352.48L957.2 377.48L957.2 427.48L913.89 452.48L870.59 427.48L870.59 377.48zM913.89 502.48L957.2 527.48L957.2 577.48L913.89 602.48L870.59 577.48L870.59 527.48zM913.89 652.48L957.2 677.48L957.2 727.48L913.89 752.48L870.59 727.48L870.59 677.48zM913.89 802.48L957.2 827.48L957.2 877.48L913.89 902.48L870.59 877.48L870.59 827.48zM1000.5 352.48L1043.8 377.48L1043.8 427.48L1000.5 452.48L957.2 427.48L957.2 377.48zM957.2 577.48L1000.5 602.48L1000.5 652.48L957.2 677.48L913.89 652.48L913.89 602.48zM957.2 727.48L1000.5 752.48L1000.5 802.48L957.2 827.48L913.89 802.48L913.89 752.48zM1000.5 802.48L1043.8 827.48L1043.8 877.48L1000.5 902.48L957.2 877.48L957.2 827.48zM1087.1 202.48L1130.4 227.48L1130.4 277.48L1087.1 302.48L1043.8 277.48L1043.8 227.48zM1043.8 277.48L1087.1 302.48L1087.1 352.48L1043.8 377.48L1000.5 352.48L1000.5 302.48zM1043.8 577.48L1087.1 602.48L1087.1 652.48L1043.8 677.48L1000.5 652.48L1000.5 602.48zM1087.1 652.48L1130.4 677.48L1130.4 727.48L1087.1 752.48L1043.8 727.48L1043.8 677.48zM1043.8 727.48L1087.1 752.48L1087.1 802.48L1043.8 827.48L1000.5 802.48L1000.5 752.48zM1130.4 -22.52L1173.71 2.48L1173.71 52.48L1130.4 77.48L1087.1 52.48L1087.1 2.48zM1130.4 127.48L1173.71 152.48L1173.71 202.48L1130.4 227.48L1087.1 202.48L1087.1 152.48zM1173.71 202.48L1217.01 227.48L1217.01 277.48L1173.71 302.48L1130.4 277.48L1130.4 227.48zM1130.4 277.48L1173.71 302.48L1173.71 352.48L1130.4 377.48L1087.1 352.48L1087.1 302.48zM1130.4 427.48L1173.71 452.48L1173.71 502.48L1130.4 527.48L1087.1 502.48L1087.1 452.48zM1173.71 652.48L1217.01 677.48L1217.01 727.48L1173.71 752.48L1130.4 727.48L1130.4 677.48zM1130.4 727.48L1173.71 752.48L1173.71 802.48L1130.4 827.48L1087.1 802.48L1087.1 752.48zM1173.71 802.48L1217.01 827.48L1217.01 877.48L1173.71 902.48L1130.4 877.48L1130.4 827.48zM1130.4 877.48L1173.71 902.48L1173.71 952.48L1130.4 977.48L1087.1 952.48L1087.1 902.48zM1260.31 52.48L1303.62 77.48L1303.62 127.48L1260.31 152.48L1217.01 127.48L1217.01 77.48zM1260.31 202.48L1303.62 227.48L1303.62 277.48L1260.31 302.48L1217.01 277.48L1217.01 227.48zM1260.31 502.48L1303.62 527.48L1303.62 577.48L1260.31 602.48L1217.01 577.48L1217.01 527.48zM1260.31 652.48L1303.62 677.48L1303.62 727.48L1260.31 752.48L1217.01 727.48L1217.01 677.48zM1217.01 877.48L1260.31 902.48L1260.31 952.48L1217.01 977.48L1173.71 952.48L1173.71 902.48zM1346.92 202.48L1390.22 227.48L1390.22 277.48L1346.92 302.48L1303.62 277.48L1303.62 227.48zM1346.92 352.48L1390.22 377.48L1390.22 427.48L1346.92 452.48L1303.62 427.48L1303.62 377.48zM1346.92 502.48L1390.22 527.48L1390.22 577.48L1346.92 602.48L1303.62 577.48L1303.62 527.48zM1303.62 877.48L1346.92 902.48L1346.92 952.48L1303.62 977.48L1260.31 952.48L1260.31 902.48zM1390.22 127.48L1433.52 152.48L1433.52 202.48L1390.22 227.48L1346.92 202.48L1346.92 152.48zM1433.52 202.48L1476.83 227.48L1476.83 277.48L1433.52 302.48L1390.22 277.48L1390.22 227.48zM1390.22 577.48L1433.52 602.48L1433.52 652.48L1390.22 677.48L1346.92 652.48L1346.92 602.48zM1433.52 652.48L1476.83 677.48L1476.83 727.48L1433.52 752.48L1390.22 727.48L1390.22 677.48z" stroke="rgba(212, 230, 210, 0.29)" stroke-width="2"></path></g><defs><mask id="SvgjsMask1020"><rect width="1440" height="900" fill="#ffffff"></rect></mask></defs></svg>