<svg xmlns="http://www.w3.org/2000/svg" version="1.1" xmlns:xlink="http://www.w3.org/1999/xlink" xmlns:svgjs="http://svgjs.dev/svgjs" width="1440" height="650" preserveAspectRatio="none" viewBox="0 0 1440 650"><g mask="url(&quot;#SvgjsMask1129&quot;)" fill="none"><rect width="1440" height="650" x="0" y="0" fill="rgba(255, 255, 255, 1)"></rect><path d="M388.64 334.47L444.93 366.97L444.93 431.97L388.64 464.47L332.35 431.97L332.35 366.97zM501.23 139.47L557.52 171.97L557.52 236.97L501.23 269.47L444.93 236.97L444.93 171.97zM726.4 -55.53L782.69 -23.03L782.69 41.97L726.4 74.47L670.11 41.97L670.11 -23.03zM726.4 334.47L782.69 366.97L782.69 431.97L726.4 464.47L670.11 431.97L670.11 366.97zM895.28 431.97L951.57 464.47L951.57 529.47L895.28 561.97L838.99 529.47L838.99 464.47zM1064.16 -55.53L1120.45 -23.03L1120.45 41.97L1064.16 74.47L1007.87 41.97L1007.87 -23.03zM1120.45 41.97L1176.75 74.47L1176.75 139.47L1120.45 171.97L1064.16 139.47L1064.16 74.47zM1233.04 41.97L1289.33 74.47L1289.33 139.47L1233.04 171.97L1176.75 139.47L1176.75 74.47zM1345.62 236.97L1401.92 269.47L1401.92 334.47L1345.62 366.97L1289.33 334.47L1289.33 269.47zM1345.62 431.97L1401.92 464.47L1401.92 529.47L1345.62 561.97L1289.33 529.47L1289.33 464.47zM1289.33 529.47L1345.62 561.97L1345.62 626.97L1289.33 659.47L1233.04 626.97L1233.04 561.97zM1401.92 334.47L1458.21 366.97L1458.21 431.97L1401.92 464.47L1345.62 431.97L1345.62 366.97zM1458.21 626.97L1514.5 659.47L1514.5 724.47L1458.21 756.97L1401.92 724.47L1401.92 659.47z" stroke="rgba(149, 150, 149, 0.11)" stroke-width="2"></path><path d="M382.14 334.47 a6.5 6.5 0 1 0 13 0 a6.5 6.5 0 1 0 -13 0zM438.43 366.97 a6.5 6.5 0 1 0 13 0 a6.5 6.5 0 1 0 -13 0zM438.43 431.97 a6.5 6.5 0 1 0 13 0 a6.5 6.5 0 1 0 -13 0zM382.14 464.47 a6.5 6.5 0 1 0 13 0 a6.5 6.5 0 1 0 -13 0zM325.85 431.97 a6.5 6.5 0 1 0 13 0 a6.5 6.5 0 1 0 -13 0zM325.85 366.97 a6.5 6.5 0 1 0 13 0 a6.5 6.5 0 1 0 -13 0zM494.73 139.47 a6.5 6.5 0 1 0 13 0 a6.5 6.5 0 1 0 -13 0zM551.02 171.97 a6.5 6.5 0 1 0 13 0 a6.5 6.5 0 1 0 -13 0zM551.02 236.97 a6.5 6.5 0 1 0 13 0 a6.5 6.5 0 1 0 -13 0zM494.73 269.47 a6.5 6.5 0 1 0 13 0 a6.5 6.5 0 1 0 -13 0zM438.43 236.97 a6.5 6.5 0 1 0 13 0 a6.5 6.5 0 1 0 -13 0zM438.43 171.97 a6.5 6.5 0 1 0 13 0 a6.5 6.5 0 1 0 -13 0zM719.9 -55.53 a6.5 6.5 0 1 0 13 0 a6.5 6.5 0 1 0 -13 0zM776.19 -23.03 a6.5 6.5 0 1 0 13 0 a6.5 6.5 0 1 0 -13 0zM776.19 41.97 a6.5 6.5 0 1 0 13 0 a6.5 6.5 0 1 0 -13 0zM719.9 74.47 a6.5 6.5 0 1 0 13 0 a6.5 6.5 0 1 0 -13 0zM663.61 41.97 a6.5 6.5 0 1 0 13 0 a6.5 6.5 0 1 0 -13 0zM663.61 -23.03 a6.5 6.5 0 1 0 13 0 a6.5 6.5 0 1 0 -13 0zM719.9 334.47 a6.5 6.5 0 1 0 13 0 a6.5 6.5 0 1 0 -13 0zM776.19 366.97 a6.5 6.5 0 1 0 13 0 a6.5 6.5 0 1 0 -13 0zM776.19 431.97 a6.5 6.5 0 1 0 13 0 a6.5 6.5 0 1 0 -13 0zM719.9 464.47 a6.5 6.5 0 1 0 13 0 a6.5 6.5 0 1 0 -13 0zM663.61 431.97 a6.5 6.5 0 1 0 13 0 a6.5 6.5 0 1 0 -13 0zM663.61 366.97 a6.5 6.5 0 1 0 13 0 a6.5 6.5 0 1 0 -13 0zM888.78 431.97 a6.5 6.5 0 1 0 13 0 a6.5 6.5 0 1 0 -13 0zM945.07 464.47 a6.5 6.5 0 1 0 13 0 a6.5 6.5 0 1 0 -13 0zM945.07 529.47 a6.5 6.5 0 1 0 13 0 a6.5 6.5 0 1 0 -13 0zM888.78 561.97 a6.5 6.5 0 1 0 13 0 a6.5 6.5 0 1 0 -13 0zM832.49 529.47 a6.5 6.5 0 1 0 13 0 a6.5 6.5 0 1 0 -13 0zM832.49 464.47 a6.5 6.5 0 1 0 13 0 a6.5 6.5 0 1 0 -13 0zM1057.66 -55.53 a6.5 6.5 0 1 0 13 0 a6.5 6.5 0 1 0 -13 0zM1113.95 -23.03 a6.5 6.5 0 1 0 13 0 a6.5 6.5 0 1 0 -13 0zM1113.95 41.97 a6.5 6.5 0 1 0 13 0 a6.5 6.5 0 1 0 -13 0zM1057.66 74.47 a6.5 6.5 0 1 0 13 0 a6.5 6.5 0 1 0 -13 0zM1001.37 41.97 a6.5 6.5 0 1 0 13 0 a6.5 6.5 0 1 0 -13 0zM1001.37 -23.03 a6.5 6.5 0 1 0 13 0 a6.5 6.5 0 1 0 -13 0zM1170.25 74.47 a6.5 6.5 0 1 0 13 0 a6.5 6.5 0 1 0 -13 0zM1170.25 139.47 a6.5 6.5 0 1 0 13 0 a6.5 6.5 0 1 0 -13 0zM1113.95 171.97 a6.5 6.5 0 1 0 13 0 a6.5 6.5 0 1 0 -13 0zM1057.66 139.47 a6.5 6.5 0 1 0 13 0 a6.5 6.5 0 1 0 -13 0zM1226.54 41.97 a6.5 6.5 0 1 0 13 0 a6.5 6.5 0 1 0 -13 0zM1282.83 74.47 a6.5 6.5 0 1 0 13 0 a6.5 6.5 0 1 0 -13 0zM1282.83 139.47 a6.5 6.5 0 1 0 13 0 a6.5 6.5 0 1 0 -13 0zM1226.54 171.97 a6.5 6.5 0 1 0 13 0 a6.5 6.5 0 1 0 -13 0zM1339.12 236.97 a6.5 6.5 0 1 0 13 0 a6.5 6.5 0 1 0 -13 0zM1395.42 269.47 a6.5 6.5 0 1 0 13 0 a6.5 6.5 0 1 0 -13 0zM1395.42 334.47 a6.5 6.5 0 1 0 13 0 a6.5 6.5 0 1 0 -13 0zM1339.12 366.97 a6.5 6.5 0 1 0 13 0 a6.5 6.5 0 1 0 -13 0zM1282.83 334.47 a6.5 6.5 0 1 0 13 0 a6.5 6.5 0 1 0 -13 0zM1282.83 269.47 a6.5 6.5 0 1 0 13 0 a6.5 6.5 0 1 0 -13 0zM1339.12 431.97 a6.5 6.5 0 1 0 13 0 a6.5 6.5 0 1 0 -13 0zM1395.42 464.47 a6.5 6.5 0 1 0 13 0 a6.5 6.5 0 1 0 -13 0zM1395.42 529.47 a6.5 6.5 0 1 0 13 0 a6.5 6.5 0 1 0 -13 0zM1339.12 561.97 a6.5 6.5 0 1 0 13 0 a6.5 6.5 0 1 0 -13 0zM1282.83 529.47 a6.5 6.5 0 1 0 13 0 a6.5 6.5 0 1 0 -13 0zM1282.83 464.47 a6.5 6.5 0 1 0 13 0 a6.5 6.5 0 1 0 -13 0zM1339.12 626.97 a6.5 6.5 0 1 0 13 0 a6.5 6.5 0 1 0 -13 0zM1282.83 659.47 a6.5 6.5 0 1 0 13 0 a6.5 6.5 0 1 0 -13 0zM1226.54 626.97 a6.5 6.5 0 1 0 13 0 a6.5 6.5 0 1 0 -13 0zM1226.54 561.97 a6.5 6.5 0 1 0 13 0 a6.5 6.5 0 1 0 -13 0zM1451.71 366.97 a6.5 6.5 0 1 0 13 0 a6.5 6.5 0 1 0 -13 0zM1451.71 431.97 a6.5 6.5 0 1 0 13 0 a6.5 6.5 0 1 0 -13 0zM1451.71 626.97 a6.5 6.5 0 1 0 13 0 a6.5 6.5 0 1 0 -13 0zM1508 659.47 a6.5 6.5 0 1 0 13 0 a6.5 6.5 0 1 0 -13 0zM1508 724.47 a6.5 6.5 0 1 0 13 0 a6.5 6.5 0 1 0 -13 0zM1451.71 756.97 a6.5 6.5 0 1 0 13 0 a6.5 6.5 0 1 0 -13 0zM1395.42 724.47 a6.5 6.5 0 1 0 13 0 a6.5 6.5 0 1 0 -13 0zM1395.42 659.47 a6.5 6.5 0 1 0 13 0 a6.5 6.5 0 1 0 -13 0z" fill="rgba(149, 150, 149, 0.11)"></path><path d="M58.83 641.11L102.14 666.11L102.14 716.11L58.83 741.11L15.53 716.11L15.53 666.11zM102.14 416.11L145.44 441.11L145.44 491.11L102.14 516.11L58.83 491.11L58.83 441.11zM145.44 641.11L188.74 666.11L188.74 716.11L145.44 741.11L102.14 716.11L102.14 666.11zM275.34 116.11L318.65 141.11L318.65 191.11L275.34 216.11L232.04 191.11L232.04 141.11zM405.25 641.11L448.56 666.11L448.56 716.11L405.25 741.11L361.95 716.11L361.95 666.11zM491.86 491.11L535.16 516.11L535.16 566.11L491.86 591.11L448.56 566.11L448.56 516.11zM578.46 491.11L621.76 516.11L621.76 566.11L578.46 591.11L535.16 566.11L535.16 516.11zM578.46 641.11L621.76 666.11L621.76 716.11L578.46 741.11L535.16 716.11L535.16 666.11zM665.07 641.11L708.37 666.11L708.37 716.11L665.07 741.11L621.76 716.11L621.76 666.11zM751.67 341.11L794.98 366.11L794.98 416.11L751.67 441.11L708.37 416.11L708.37 366.11zM708.37 416.11L751.67 441.11L751.67 491.11L708.37 516.11L665.07 491.11L665.07 441.11zM751.67 641.11L794.98 666.11L794.98 716.11L751.67 741.11L708.37 716.11L708.37 666.11zM794.98 116.11L838.28 141.11L838.28 191.11L794.98 216.11L751.67 191.11L751.67 141.11zM838.28 491.11L881.58 516.11L881.58 566.11L838.28 591.11L794.98 566.11L794.98 516.11zM881.58 -33.89L924.88 -8.89L924.88 41.11L881.58 66.11L838.28 41.11L838.28 -8.89zM881.58 266.11L924.88 291.11L924.88 341.11L881.58 366.11L838.28 341.11L838.28 291.11zM924.88 491.11L968.19 516.11L968.19 566.11L924.88 591.11L881.58 566.11L881.58 516.11zM1054.79 -33.89L1098.09 -8.89L1098.09 41.11L1054.79 66.11L1011.49 41.11L1011.49 -8.89zM1098.09 641.11L1141.39 666.11L1141.39 716.11L1098.09 741.11L1054.79 716.11L1054.79 666.11zM1184.7 191.11L1228 216.11L1228 266.11L1184.7 291.11L1141.39 266.11L1141.39 216.11zM1141.39 416.11L1184.7 441.11L1184.7 491.11L1141.39 516.11L1098.09 491.11L1098.09 441.11zM1184.7 641.11L1228 666.11L1228 716.11L1184.7 741.11L1141.39 716.11L1141.39 666.11zM1271.3 191.11L1314.61 216.11L1314.61 266.11L1271.3 291.11L1228 266.11L1228 216.11zM1228 416.11L1271.3 441.11L1271.3 491.11L1228 516.11L1184.7 491.11L1184.7 441.11zM1357.91 341.11L1401.21 366.11L1401.21 416.11L1357.91 441.11L1314.61 416.11L1314.61 366.11z" stroke="rgba(194, 194, 194, 0.14)" stroke-width="2"></path></g><defs><mask id="SvgjsMask1129"><rect width="1440" height="650" fill="#ffffff"></rect></mask></defs></svg>