<svg xmlns="http://www.w3.org/2000/svg" version="1.1" xmlns:xlink="http://www.w3.org/1999/xlink" xmlns:svgjs="http://svgjs.dev/svgjs" width="1440" height="900" preserveAspectRatio="none" viewBox="0 0 1440 900"><g mask="url(&quot;#SvgjsMask1016&quot;)" fill="none"><rect width="1440" height="900" x="0" y="0" fill="rgba(255, 255, 255, 1)"></rect><path d="M62.4 51.42L118.7 83.92L118.7 148.92L62.4 181.42L6.11 148.92L6.11 83.92zM62.4 441.42L118.7 473.92L118.7 538.92L62.4 571.42L6.11 538.92L6.11 473.92zM62.4 636.42L118.7 668.92L118.7 733.92L62.4 766.42L6.11 733.92L6.11 668.92zM6.11 733.92L62.4 766.42L62.4 831.42L6.11 863.92L-50.18 831.42L-50.18 766.42zM174.99 51.42L231.28 83.92L231.28 148.92L174.99 181.42L118.7 148.92L118.7 83.92zM118.7 733.92L174.99 766.42L174.99 831.42L118.7 863.92L62.4 831.42L62.4 766.42zM287.58 51.42L343.87 83.92L343.87 148.92L287.58 181.42L231.28 148.92L231.28 83.92zM287.58 636.42L343.87 668.92L343.87 733.92L287.58 766.42L231.28 733.92L231.28 668.92zM231.28 733.92L287.58 766.42L287.58 831.42L231.28 863.92L174.99 831.42L174.99 766.42zM400.16 636.42L456.46 668.92L456.46 733.92L400.16 766.42L343.87 733.92L343.87 668.92zM512.75 51.42L569.04 83.92L569.04 148.92L512.75 181.42L456.46 148.92L456.46 83.92zM456.46 733.92L512.75 766.42L512.75 831.42L456.46 863.92L400.16 831.42L400.16 766.42zM512.75 831.42L569.04 863.92L569.04 928.92L512.75 961.42L456.46 928.92L456.46 863.92zM569.04 148.92L625.34 181.42L625.34 246.42L569.04 278.92L512.75 246.42L512.75 181.42zM681.63 538.92L737.92 571.42L737.92 636.42L681.63 668.92L625.34 636.42L625.34 571.42zM681.63 733.92L737.92 766.42L737.92 831.42L681.63 863.92L625.34 831.42L625.34 766.42zM794.22 -46.08L850.51 -13.58L850.51 51.42L794.22 83.92L737.92 51.42L737.92 -13.58zM850.51 636.42L906.8 668.92L906.8 733.92L850.51 766.42L794.22 733.92L794.22 668.92zM850.51 831.42L906.8 863.92L906.8 928.92L850.51 961.42L794.22 928.92L794.22 863.92zM906.8 -46.08L963.1 -13.58L963.1 51.42L906.8 83.92L850.51 51.42L850.51 -13.58zM963.1 441.42L1019.39 473.92L1019.39 538.92L963.1 571.42L906.8 538.92L906.8 473.92zM1019.39 -46.08L1075.68 -13.58L1075.68 51.42L1019.39 83.92L963.1 51.42L963.1 -13.58zM1075.68 51.42L1131.97 83.92L1131.97 148.92L1075.68 181.42L1019.39 148.92L1019.39 83.92zM1075.68 441.42L1131.97 473.92L1131.97 538.92L1075.68 571.42L1019.39 538.92L1019.39 473.92zM1075.68 831.42L1131.97 863.92L1131.97 928.92L1075.68 961.42L1019.39 928.92L1019.39 863.92zM1131.97 -46.08L1188.27 -13.58L1188.27 51.42L1131.97 83.92L1075.68 51.42L1075.68 -13.58zM1131.97 343.92L1188.27 376.42L1188.27 441.42L1131.97 473.92L1075.68 441.42L1075.68 376.42zM1188.27 441.42L1244.56 473.92L1244.56 538.92L1188.27 571.42L1131.97 538.92L1131.97 473.92zM1188.27 636.42L1244.56 668.92L1244.56 733.92L1188.27 766.42L1131.97 733.92L1131.97 668.92zM1357.15 148.92L1413.44 181.42L1413.44 246.42L1357.15 278.92L1300.85 246.42L1300.85 181.42zM1357.15 343.92L1413.44 376.42L1413.44 441.42L1357.15 473.92L1300.85 441.42L1300.85 376.42zM1357.15 538.92L1413.44 571.42L1413.44 636.42L1357.15 668.92L1300.85 636.42L1300.85 571.42zM1357.15 733.92L1413.44 766.42L1413.44 831.42L1357.15 863.92L1300.85 831.42L1300.85 766.42z" stroke="rgba(149, 150, 149, 0.09)" stroke-width="2"></path><path d="M55.9 51.42 a6.5 6.5 0 1 0 13 0 a6.5 6.5 0 1 0 -13 0zM112.2 83.92 a6.5 6.5 0 1 0 13 0 a6.5 6.5 0 1 0 -13 0zM112.2 148.92 a6.5 6.5 0 1 0 13 0 a6.5 6.5 0 1 0 -13 0zM55.9 181.42 a6.5 6.5 0 1 0 13 0 a6.5 6.5 0 1 0 -13 0zM-0.39 148.92 a6.5 6.5 0 1 0 13 0 a6.5 6.5 0 1 0 -13 0zM-0.39 83.92 a6.5 6.5 0 1 0 13 0 a6.5 6.5 0 1 0 -13 0zM55.9 441.42 a6.5 6.5 0 1 0 13 0 a6.5 6.5 0 1 0 -13 0zM112.2 473.92 a6.5 6.5 0 1 0 13 0 a6.5 6.5 0 1 0 -13 0zM112.2 538.92 a6.5 6.5 0 1 0 13 0 a6.5 6.5 0 1 0 -13 0zM55.9 571.42 a6.5 6.5 0 1 0 13 0 a6.5 6.5 0 1 0 -13 0zM-0.39 538.92 a6.5 6.5 0 1 0 13 0 a6.5 6.5 0 1 0 -13 0zM-0.39 473.92 a6.5 6.5 0 1 0 13 0 a6.5 6.5 0 1 0 -13 0zM55.9 636.42 a6.5 6.5 0 1 0 13 0 a6.5 6.5 0 1 0 -13 0zM112.2 668.92 a6.5 6.5 0 1 0 13 0 a6.5 6.5 0 1 0 -13 0zM112.2 733.92 a6.5 6.5 0 1 0 13 0 a6.5 6.5 0 1 0 -13 0zM55.9 766.42 a6.5 6.5 0 1 0 13 0 a6.5 6.5 0 1 0 -13 0zM-0.39 733.92 a6.5 6.5 0 1 0 13 0 a6.5 6.5 0 1 0 -13 0zM-0.39 668.92 a6.5 6.5 0 1 0 13 0 a6.5 6.5 0 1 0 -13 0zM55.9 831.42 a6.5 6.5 0 1 0 13 0 a6.5 6.5 0 1 0 -13 0zM-0.39 863.92 a6.5 6.5 0 1 0 13 0 a6.5 6.5 0 1 0 -13 0zM-56.68 831.42 a6.5 6.5 0 1 0 13 0 a6.5 6.5 0 1 0 -13 0zM-56.68 766.42 a6.5 6.5 0 1 0 13 0 a6.5 6.5 0 1 0 -13 0zM168.49 51.42 a6.5 6.5 0 1 0 13 0 a6.5 6.5 0 1 0 -13 0zM224.78 83.92 a6.5 6.5 0 1 0 13 0 a6.5 6.5 0 1 0 -13 0zM224.78 148.92 a6.5 6.5 0 1 0 13 0 a6.5 6.5 0 1 0 -13 0zM168.49 181.42 a6.5 6.5 0 1 0 13 0 a6.5 6.5 0 1 0 -13 0zM168.49 766.42 a6.5 6.5 0 1 0 13 0 a6.5 6.5 0 1 0 -13 0zM168.49 831.42 a6.5 6.5 0 1 0 13 0 a6.5 6.5 0 1 0 -13 0zM112.2 863.92 a6.5 6.5 0 1 0 13 0 a6.5 6.5 0 1 0 -13 0zM281.08 51.42 a6.5 6.5 0 1 0 13 0 a6.5 6.5 0 1 0 -13 0zM337.37 83.92 a6.5 6.5 0 1 0 13 0 a6.5 6.5 0 1 0 -13 0zM337.37 148.92 a6.5 6.5 0 1 0 13 0 a6.5 6.5 0 1 0 -13 0zM281.08 181.42 a6.5 6.5 0 1 0 13 0 a6.5 6.5 0 1 0 -13 0zM281.08 636.42 a6.5 6.5 0 1 0 13 0 a6.5 6.5 0 1 0 -13 0zM337.37 668.92 a6.5 6.5 0 1 0 13 0 a6.5 6.5 0 1 0 -13 0zM337.37 733.92 a6.5 6.5 0 1 0 13 0 a6.5 6.5 0 1 0 -13 0zM281.08 766.42 a6.5 6.5 0 1 0 13 0 a6.5 6.5 0 1 0 -13 0zM224.78 733.92 a6.5 6.5 0 1 0 13 0 a6.5 6.5 0 1 0 -13 0zM224.78 668.92 a6.5 6.5 0 1 0 13 0 a6.5 6.5 0 1 0 -13 0zM281.08 831.42 a6.5 6.5 0 1 0 13 0 a6.5 6.5 0 1 0 -13 0zM224.78 863.92 a6.5 6.5 0 1 0 13 0 a6.5 6.5 0 1 0 -13 0zM393.66 636.42 a6.5 6.5 0 1 0 13 0 a6.5 6.5 0 1 0 -13 0zM449.96 668.92 a6.5 6.5 0 1 0 13 0 a6.5 6.5 0 1 0 -13 0zM449.96 733.92 a6.5 6.5 0 1 0 13 0 a6.5 6.5 0 1 0 -13 0zM393.66 766.42 a6.5 6.5 0 1 0 13 0 a6.5 6.5 0 1 0 -13 0zM506.25 51.42 a6.5 6.5 0 1 0 13 0 a6.5 6.5 0 1 0 -13 0zM562.54 83.92 a6.5 6.5 0 1 0 13 0 a6.5 6.5 0 1 0 -13 0zM562.54 148.92 a6.5 6.5 0 1 0 13 0 a6.5 6.5 0 1 0 -13 0zM506.25 181.42 a6.5 6.5 0 1 0 13 0 a6.5 6.5 0 1 0 -13 0zM449.96 148.92 a6.5 6.5 0 1 0 13 0 a6.5 6.5 0 1 0 -13 0zM449.96 83.92 a6.5 6.5 0 1 0 13 0 a6.5 6.5 0 1 0 -13 0zM506.25 766.42 a6.5 6.5 0 1 0 13 0 a6.5 6.5 0 1 0 -13 0zM506.25 831.42 a6.5 6.5 0 1 0 13 0 a6.5 6.5 0 1 0 -13 0zM449.96 863.92 a6.5 6.5 0 1 0 13 0 a6.5 6.5 0 1 0 -13 0zM393.66 831.42 a6.5 6.5 0 1 0 13 0 a6.5 6.5 0 1 0 -13 0zM562.54 863.92 a6.5 6.5 0 1 0 13 0 a6.5 6.5 0 1 0 -13 0zM562.54 928.92 a6.5 6.5 0 1 0 13 0 a6.5 6.5 0 1 0 -13 0zM506.25 961.42 a6.5 6.5 0 1 0 13 0 a6.5 6.5 0 1 0 -13 0zM449.96 928.92 a6.5 6.5 0 1 0 13 0 a6.5 6.5 0 1 0 -13 0zM618.84 181.42 a6.5 6.5 0 1 0 13 0 a6.5 6.5 0 1 0 -13 0zM618.84 246.42 a6.5 6.5 0 1 0 13 0 a6.5 6.5 0 1 0 -13 0zM562.54 278.92 a6.5 6.5 0 1 0 13 0 a6.5 6.5 0 1 0 -13 0zM506.25 246.42 a6.5 6.5 0 1 0 13 0 a6.5 6.5 0 1 0 -13 0zM675.13 538.92 a6.5 6.5 0 1 0 13 0 a6.5 6.5 0 1 0 -13 0zM731.42 571.42 a6.5 6.5 0 1 0 13 0 a6.5 6.5 0 1 0 -13 0zM731.42 636.42 a6.5 6.5 0 1 0 13 0 a6.5 6.5 0 1 0 -13 0zM675.13 668.92 a6.5 6.5 0 1 0 13 0 a6.5 6.5 0 1 0 -13 0zM618.84 636.42 a6.5 6.5 0 1 0 13 0 a6.5 6.5 0 1 0 -13 0zM618.84 571.42 a6.5 6.5 0 1 0 13 0 a6.5 6.5 0 1 0 -13 0zM675.13 733.92 a6.5 6.5 0 1 0 13 0 a6.5 6.5 0 1 0 -13 0zM731.42 766.42 a6.5 6.5 0 1 0 13 0 a6.5 6.5 0 1 0 -13 0zM731.42 831.42 a6.5 6.5 0 1 0 13 0 a6.5 6.5 0 1 0 -13 0zM675.13 863.92 a6.5 6.5 0 1 0 13 0 a6.5 6.5 0 1 0 -13 0zM618.84 831.42 a6.5 6.5 0 1 0 13 0 a6.5 6.5 0 1 0 -13 0zM618.84 766.42 a6.5 6.5 0 1 0 13 0 a6.5 6.5 0 1 0 -13 0zM787.72 -46.08 a6.5 6.5 0 1 0 13 0 a6.5 6.5 0 1 0 -13 0zM844.01 -13.58 a6.5 6.5 0 1 0 13 0 a6.5 6.5 0 1 0 -13 0zM844.01 51.42 a6.5 6.5 0 1 0 13 0 a6.5 6.5 0 1 0 -13 0zM787.72 83.92 a6.5 6.5 0 1 0 13 0 a6.5 6.5 0 1 0 -13 0zM731.42 51.42 a6.5 6.5 0 1 0 13 0 a6.5 6.5 0 1 0 -13 0zM731.42 -13.58 a6.5 6.5 0 1 0 13 0 a6.5 6.5 0 1 0 -13 0zM844.01 636.42 a6.5 6.5 0 1 0 13 0 a6.5 6.5 0 1 0 -13 0zM900.3 668.92 a6.5 6.5 0 1 0 13 0 a6.5 6.5 0 1 0 -13 0zM900.3 733.92 a6.5 6.5 0 1 0 13 0 a6.5 6.5 0 1 0 -13 0zM844.01 766.42 a6.5 6.5 0 1 0 13 0 a6.5 6.5 0 1 0 -13 0zM787.72 733.92 a6.5 6.5 0 1 0 13 0 a6.5 6.5 0 1 0 -13 0zM787.72 668.92 a6.5 6.5 0 1 0 13 0 a6.5 6.5 0 1 0 -13 0zM844.01 831.42 a6.5 6.5 0 1 0 13 0 a6.5 6.5 0 1 0 -13 0zM900.3 863.92 a6.5 6.5 0 1 0 13 0 a6.5 6.5 0 1 0 -13 0zM900.3 928.92 a6.5 6.5 0 1 0 13 0 a6.5 6.5 0 1 0 -13 0zM844.01 961.42 a6.5 6.5 0 1 0 13 0 a6.5 6.5 0 1 0 -13 0zM787.72 928.92 a6.5 6.5 0 1 0 13 0 a6.5 6.5 0 1 0 -13 0zM787.72 863.92 a6.5 6.5 0 1 0 13 0 a6.5 6.5 0 1 0 -13 0zM900.3 -46.08 a6.5 6.5 0 1 0 13 0 a6.5 6.5 0 1 0 -13 0zM956.6 -13.58 a6.5 6.5 0 1 0 13 0 a6.5 6.5 0 1 0 -13 0zM956.6 51.42 a6.5 6.5 0 1 0 13 0 a6.5 6.5 0 1 0 -13 0zM900.3 83.92 a6.5 6.5 0 1 0 13 0 a6.5 6.5 0 1 0 -13 0zM956.6 441.42 a6.5 6.5 0 1 0 13 0 a6.5 6.5 0 1 0 -13 0zM1012.89 473.92 a6.5 6.5 0 1 0 13 0 a6.5 6.5 0 1 0 -13 0zM1012.89 538.92 a6.5 6.5 0 1 0 13 0 a6.5 6.5 0 1 0 -13 0zM956.6 571.42 a6.5 6.5 0 1 0 13 0 a6.5 6.5 0 1 0 -13 0zM900.3 538.92 a6.5 6.5 0 1 0 13 0 a6.5 6.5 0 1 0 -13 0zM900.3 473.92 a6.5 6.5 0 1 0 13 0 a6.5 6.5 0 1 0 -13 0zM1012.89 -46.08 a6.5 6.5 0 1 0 13 0 a6.5 6.5 0 1 0 -13 0zM1069.18 -13.58 a6.5 6.5 0 1 0 13 0 a6.5 6.5 0 1 0 -13 0zM1069.18 51.42 a6.5 6.5 0 1 0 13 0 a6.5 6.5 0 1 0 -13 0zM1012.89 83.92 a6.5 6.5 0 1 0 13 0 a6.5 6.5 0 1 0 -13 0zM1125.47 83.92 a6.5 6.5 0 1 0 13 0 a6.5 6.5 0 1 0 -13 0zM1125.47 148.92 a6.5 6.5 0 1 0 13 0 a6.5 6.5 0 1 0 -13 0zM1069.18 181.42 a6.5 6.5 0 1 0 13 0 a6.5 6.5 0 1 0 -13 0zM1012.89 148.92 a6.5 6.5 0 1 0 13 0 a6.5 6.5 0 1 0 -13 0zM1069.18 441.42 a6.5 6.5 0 1 0 13 0 a6.5 6.5 0 1 0 -13 0zM1125.47 473.92 a6.5 6.5 0 1 0 13 0 a6.5 6.5 0 1 0 -13 0zM1125.47 538.92 a6.5 6.5 0 1 0 13 0 a6.5 6.5 0 1 0 -13 0zM1069.18 571.42 a6.5 6.5 0 1 0 13 0 a6.5 6.5 0 1 0 -13 0zM1069.18 831.42 a6.5 6.5 0 1 0 13 0 a6.5 6.5 0 1 0 -13 0zM1125.47 863.92 a6.5 6.5 0 1 0 13 0 a6.5 6.5 0 1 0 -13 0zM1125.47 928.92 a6.5 6.5 0 1 0 13 0 a6.5 6.5 0 1 0 -13 0zM1069.18 961.42 a6.5 6.5 0 1 0 13 0 a6.5 6.5 0 1 0 -13 0zM1012.89 928.92 a6.5 6.5 0 1 0 13 0 a6.5 6.5 0 1 0 -13 0zM1012.89 863.92 a6.5 6.5 0 1 0 13 0 a6.5 6.5 0 1 0 -13 0zM1125.47 -46.08 a6.5 6.5 0 1 0 13 0 a6.5 6.5 0 1 0 -13 0zM1181.77 -13.58 a6.5 6.5 0 1 0 13 0 a6.5 6.5 0 1 0 -13 0zM1181.77 51.42 a6.5 6.5 0 1 0 13 0 a6.5 6.5 0 1 0 -13 0zM1125.47 343.92 a6.5 6.5 0 1 0 13 0 a6.5 6.5 0 1 0 -13 0zM1181.77 376.42 a6.5 6.5 0 1 0 13 0 a6.5 6.5 0 1 0 -13 0zM1181.77 441.42 a6.5 6.5 0 1 0 13 0 a6.5 6.5 0 1 0 -13 0zM1069.18 376.42 a6.5 6.5 0 1 0 13 0 a6.5 6.5 0 1 0 -13 0zM1238.06 473.92 a6.5 6.5 0 1 0 13 0 a6.5 6.5 0 1 0 -13 0zM1238.06 538.92 a6.5 6.5 0 1 0 13 0 a6.5 6.5 0 1 0 -13 0zM1181.77 571.42 a6.5 6.5 0 1 0 13 0 a6.5 6.5 0 1 0 -13 0zM1181.77 636.42 a6.5 6.5 0 1 0 13 0 a6.5 6.5 0 1 0 -13 0zM1238.06 668.92 a6.5 6.5 0 1 0 13 0 a6.5 6.5 0 1 0 -13 0zM1238.06 733.92 a6.5 6.5 0 1 0 13 0 a6.5 6.5 0 1 0 -13 0zM1181.77 766.42 a6.5 6.5 0 1 0 13 0 a6.5 6.5 0 1 0 -13 0zM1125.47 733.92 a6.5 6.5 0 1 0 13 0 a6.5 6.5 0 1 0 -13 0zM1125.47 668.92 a6.5 6.5 0 1 0 13 0 a6.5 6.5 0 1 0 -13 0zM1350.65 148.92 a6.5 6.5 0 1 0 13 0 a6.5 6.5 0 1 0 -13 0zM1406.94 181.42 a6.5 6.5 0 1 0 13 0 a6.5 6.5 0 1 0 -13 0zM1406.94 246.42 a6.5 6.5 0 1 0 13 0 a6.5 6.5 0 1 0 -13 0zM1350.65 278.92 a6.5 6.5 0 1 0 13 0 a6.5 6.5 0 1 0 -13 0zM1294.35 246.42 a6.5 6.5 0 1 0 13 0 a6.5 6.5 0 1 0 -13 0zM1294.35 181.42 a6.5 6.5 0 1 0 13 0 a6.5 6.5 0 1 0 -13 0zM1350.65 343.92 a6.5 6.5 0 1 0 13 0 a6.5 6.5 0 1 0 -13 0zM1406.94 376.42 a6.5 6.5 0 1 0 13 0 a6.5 6.5 0 1 0 -13 0zM1406.94 441.42 a6.5 6.5 0 1 0 13 0 a6.5 6.5 0 1 0 -13 0zM1350.65 473.92 a6.5 6.5 0 1 0 13 0 a6.5 6.5 0 1 0 -13 0zM1294.35 441.42 a6.5 6.5 0 1 0 13 0 a6.5 6.5 0 1 0 -13 0zM1294.35 376.42 a6.5 6.5 0 1 0 13 0 a6.5 6.5 0 1 0 -13 0zM1350.65 538.92 a6.5 6.5 0 1 0 13 0 a6.5 6.5 0 1 0 -13 0zM1406.94 571.42 a6.5 6.5 0 1 0 13 0 a6.5 6.5 0 1 0 -13 0zM1406.94 636.42 a6.5 6.5 0 1 0 13 0 a6.5 6.5 0 1 0 -13 0zM1350.65 668.92 a6.5 6.5 0 1 0 13 0 a6.5 6.5 0 1 0 -13 0zM1294.35 636.42 a6.5 6.5 0 1 0 13 0 a6.5 6.5 0 1 0 -13 0zM1294.35 571.42 a6.5 6.5 0 1 0 13 0 a6.5 6.5 0 1 0 -13 0zM1350.65 733.92 a6.5 6.5 0 1 0 13 0 a6.5 6.5 0 1 0 -13 0zM1406.94 766.42 a6.5 6.5 0 1 0 13 0 a6.5 6.5 0 1 0 -13 0zM1406.94 831.42 a6.5 6.5 0 1 0 13 0 a6.5 6.5 0 1 0 -13 0zM1350.65 863.92 a6.5 6.5 0 1 0 13 0 a6.5 6.5 0 1 0 -13 0zM1294.35 831.42 a6.5 6.5 0 1 0 13 0 a6.5 6.5 0 1 0 -13 0zM1294.35 766.42 a6.5 6.5 0 1 0 13 0 a6.5 6.5 0 1 0 -13 0z" fill="rgba(149, 150, 149, 0.09)"></path><path d="M40.62 -48.31L83.92 -23.31L83.92 26.69L40.62 51.69L-2.68 26.69L-2.68 -23.31zM83.92 26.69L127.22 51.69L127.22 101.69L83.92 126.69L40.62 101.69L40.62 51.69zM40.62 251.69L83.92 276.69L83.92 326.69L40.62 351.69L-2.68 326.69L-2.68 276.69zM83.92 626.69L127.22 651.69L127.22 701.69L83.92 726.69L40.62 701.69L40.62 651.69zM40.62 701.69L83.92 726.69L83.92 776.69L40.62 801.69L-2.68 776.69L-2.68 726.69zM170.53 26.69L213.83 51.69L213.83 101.69L170.53 126.69L127.22 101.69L127.22 51.69zM127.22 101.69L170.53 126.69L170.53 176.69L127.22 201.69L83.92 176.69L83.92 126.69zM127.22 251.69L170.53 276.69L170.53 326.69L127.22 351.69L83.92 326.69L83.92 276.69zM170.53 326.69L213.83 351.69L213.83 401.69L170.53 426.69L127.22 401.69L127.22 351.69zM127.22 551.69L170.53 576.69L170.53 626.69L127.22 651.69L83.92 626.69L83.92 576.69zM170.53 626.69L213.83 651.69L213.83 701.69L170.53 726.69L127.22 701.69L127.22 651.69zM170.53 776.69L213.83 801.69L213.83 851.69L170.53 876.69L127.22 851.69L127.22 801.69zM213.83 101.69L257.13 126.69L257.13 176.69L213.83 201.69L170.53 176.69L170.53 126.69zM257.13 176.69L300.44 201.69L300.44 251.69L257.13 276.69L213.83 251.69L213.83 201.69zM257.13 626.69L300.44 651.69L300.44 701.69L257.13 726.69L213.83 701.69L213.83 651.69zM213.83 851.69L257.13 876.69L257.13 926.69L213.83 951.69L170.53 926.69L170.53 876.69zM343.74 26.69L387.04 51.69L387.04 101.69L343.74 126.69L300.44 101.69L300.44 51.69zM343.74 326.69L387.04 351.69L387.04 401.69L343.74 426.69L300.44 401.69L300.44 351.69zM300.44 401.69L343.74 426.69L343.74 476.69L300.44 501.69L257.13 476.69L257.13 426.69zM300.44 551.69L343.74 576.69L343.74 626.69L300.44 651.69L257.13 626.69L257.13 576.69zM343.74 626.69L387.04 651.69L387.04 701.69L343.74 726.69L300.44 701.69L300.44 651.69zM343.74 776.69L387.04 801.69L387.04 851.69L343.74 876.69L300.44 851.69L300.44 801.69zM430.34 176.69L473.65 201.69L473.65 251.69L430.34 276.69L387.04 251.69L387.04 201.69zM430.34 326.69L473.65 351.69L473.65 401.69L430.34 426.69L387.04 401.69L387.04 351.69zM430.34 476.69L473.65 501.69L473.65 551.69L430.34 576.69L387.04 551.69L387.04 501.69zM387.04 551.69L430.34 576.69L430.34 626.69L387.04 651.69L343.74 626.69L343.74 576.69zM473.65 -48.31L516.95 -23.31L516.95 26.69L473.65 51.69L430.34 26.69L430.34 -23.31zM516.95 26.69L560.25 51.69L560.25 101.69L516.95 126.69L473.65 101.69L473.65 51.69zM516.95 176.69L560.25 201.69L560.25 251.69L516.95 276.69L473.65 251.69L473.65 201.69zM473.65 251.69L516.95 276.69L516.95 326.69L473.65 351.69L430.34 326.69L430.34 276.69zM516.95 326.69L560.25 351.69L560.25 401.69L516.95 426.69L473.65 401.69L473.65 351.69zM516.95 476.69L560.25 501.69L560.25 551.69L516.95 576.69L473.65 551.69L473.65 501.69zM516.95 776.69L560.25 801.69L560.25 851.69L516.95 876.69L473.65 851.69L473.65 801.69zM560.25 -48.31L603.55 -23.31L603.55 26.69L560.25 51.69L516.95 26.69L516.95 -23.31zM603.55 26.69L646.86 51.69L646.86 101.69L603.55 126.69L560.25 101.69L560.25 51.69zM560.25 101.69L603.55 126.69L603.55 176.69L560.25 201.69L516.95 176.69L516.95 126.69zM560.25 401.69L603.55 426.69L603.55 476.69L560.25 501.69L516.95 476.69L516.95 426.69zM560.25 701.69L603.55 726.69L603.55 776.69L560.25 801.69L516.95 776.69L516.95 726.69zM560.25 851.69L603.55 876.69L603.55 926.69L560.25 951.69L516.95 926.69L516.95 876.69zM646.86 -48.31L690.16 -23.31L690.16 26.69L646.86 51.69L603.55 26.69L603.55 -23.31zM646.86 101.69L690.16 126.69L690.16 176.69L646.86 201.69L603.55 176.69L603.55 126.69zM690.16 326.69L733.46 351.69L733.46 401.69L690.16 426.69L646.86 401.69L646.86 351.69zM646.86 401.69L690.16 426.69L690.16 476.69L646.86 501.69L603.55 476.69L603.55 426.69zM646.86 551.69L690.16 576.69L690.16 626.69L646.86 651.69L603.55 626.69L603.55 576.69zM776.76 326.69L820.07 351.69L820.07 401.69L776.76 426.69L733.46 401.69L733.46 351.69zM733.46 401.69L776.76 426.69L776.76 476.69L733.46 501.69L690.16 476.69L690.16 426.69zM776.76 476.69L820.07 501.69L820.07 551.69L776.76 576.69L733.46 551.69L733.46 501.69zM733.46 701.69L776.76 726.69L776.76 776.69L733.46 801.69L690.16 776.69L690.16 726.69zM776.76 776.69L820.07 801.69L820.07 851.69L776.76 876.69L733.46 851.69L733.46 801.69zM733.46 851.69L776.76 876.69L776.76 926.69L733.46 951.69L690.16 926.69L690.16 876.69zM820.07 -48.31L863.37 -23.31L863.37 26.69L820.07 51.69L776.76 26.69L776.76 -23.31zM863.37 176.69L906.67 201.69L906.67 251.69L863.37 276.69L820.07 251.69L820.07 201.69zM820.07 251.69L863.37 276.69L863.37 326.69L820.07 351.69L776.76 326.69L776.76 276.69zM863.37 326.69L906.67 351.69L906.67 401.69L863.37 426.69L820.07 401.69L820.07 351.69zM820.07 401.69L863.37 426.69L863.37 476.69L820.07 501.69L776.76 476.69L776.76 426.69zM863.37 476.69L906.67 501.69L906.67 551.69L863.37 576.69L820.07 551.69L820.07 501.69zM863.37 776.69L906.67 801.69L906.67 851.69L863.37 876.69L820.07 851.69L820.07 801.69zM820.07 851.69L863.37 876.69L863.37 926.69L820.07 951.69L776.76 926.69L776.76 876.69zM906.67 -48.31L949.97 -23.31L949.97 26.69L906.67 51.69L863.37 26.69L863.37 -23.31zM949.97 326.69L993.28 351.69L993.28 401.69L949.97 426.69L906.67 401.69L906.67 351.69zM906.67 401.69L949.97 426.69L949.97 476.69L906.67 501.69L863.37 476.69L863.37 426.69zM949.97 476.69L993.28 501.69L993.28 551.69L949.97 576.69L906.67 551.69L906.67 501.69zM949.97 626.69L993.28 651.69L993.28 701.69L949.97 726.69L906.67 701.69L906.67 651.69zM906.67 701.69L949.97 726.69L949.97 776.69L906.67 801.69L863.37 776.69L863.37 726.69zM949.97 776.69L993.28 801.69L993.28 851.69L949.97 876.69L906.67 851.69L906.67 801.69zM1036.58 326.69L1079.88 351.69L1079.88 401.69L1036.58 426.69L993.28 401.69L993.28 351.69zM1123.18 26.69L1166.48 51.69L1166.48 101.69L1123.18 126.69L1079.88 101.69L1079.88 51.69zM1079.88 101.69L1123.18 126.69L1123.18 176.69L1079.88 201.69L1036.58 176.69L1036.58 126.69zM1123.18 176.69L1166.48 201.69L1166.48 251.69L1123.18 276.69L1079.88 251.69L1079.88 201.69zM1123.18 326.69L1166.48 351.69L1166.48 401.69L1123.18 426.69L1079.88 401.69L1079.88 351.69zM1123.18 476.69L1166.48 501.69L1166.48 551.69L1123.18 576.69L1079.88 551.69L1079.88 501.69zM1123.18 626.69L1166.48 651.69L1166.48 701.69L1123.18 726.69L1079.88 701.69L1079.88 651.69zM1079.88 851.69L1123.18 876.69L1123.18 926.69L1079.88 951.69L1036.58 926.69L1036.58 876.69zM1209.79 26.69L1253.09 51.69L1253.09 101.69L1209.79 126.69L1166.48 101.69L1166.48 51.69zM1166.48 101.69L1209.79 126.69L1209.79 176.69L1166.48 201.69L1123.18 176.69L1123.18 126.69zM1209.79 176.69L1253.09 201.69L1253.09 251.69L1209.79 276.69L1166.48 251.69L1166.48 201.69zM1209.79 326.69L1253.09 351.69L1253.09 401.69L1209.79 426.69L1166.48 401.69L1166.48 351.69zM1166.48 401.69L1209.79 426.69L1209.79 476.69L1166.48 501.69L1123.18 476.69L1123.18 426.69zM1166.48 851.69L1209.79 876.69L1209.79 926.69L1166.48 951.69L1123.18 926.69L1123.18 876.69zM1296.39 26.69L1339.69 51.69L1339.69 101.69L1296.39 126.69L1253.09 101.69L1253.09 51.69zM1253.09 101.69L1296.39 126.69L1296.39 176.69L1253.09 201.69L1209.79 176.69L1209.79 126.69zM1253.09 401.69L1296.39 426.69L1296.39 476.69L1253.09 501.69L1209.79 476.69L1209.79 426.69zM1296.39 626.69L1339.69 651.69L1339.69 701.69L1296.39 726.69L1253.09 701.69L1253.09 651.69zM1253.09 851.69L1296.39 876.69L1296.39 926.69L1253.09 951.69L1209.79 926.69L1209.79 876.69zM1383 26.69L1426.3 51.69L1426.3 101.69L1383 126.69L1339.69 101.69L1339.69 51.69zM1339.69 251.69L1383 276.69L1383 326.69L1339.69 351.69L1296.39 326.69L1296.39 276.69zM1383 476.69L1426.3 501.69L1426.3 551.69L1383 576.69L1339.69 551.69L1339.69 501.69zM1339.69 551.69L1383 576.69L1383 626.69L1339.69 651.69L1296.39 626.69L1296.39 576.69zM1383 626.69L1426.3 651.69L1426.3 701.69L1383 726.69L1339.69 701.69L1339.69 651.69zM1339.69 701.69L1383 726.69L1383 776.69L1339.69 801.69L1296.39 776.69L1296.39 726.69zM1383 776.69L1426.3 801.69L1426.3 851.69L1383 876.69L1339.69 851.69L1339.69 801.69zM1426.3 251.69L1469.6 276.69L1469.6 326.69L1426.3 351.69L1383 326.69L1383 276.69zM1426.3 401.69L1469.6 426.69L1469.6 476.69L1426.3 501.69L1383 476.69L1383 426.69zM1469.6 476.69L1512.9 501.69L1512.9 551.69L1469.6 576.69L1426.3 551.69L1426.3 501.69zM1469.6 626.69L1512.9 651.69L1512.9 701.69L1469.6 726.69L1426.3 701.69L1426.3 651.69zM1426.3 701.69L1469.6 726.69L1469.6 776.69L1426.3 801.69L1383 776.69L1383 726.69zM1469.6 776.69L1512.9 801.69L1512.9 851.69L1469.6 876.69L1426.3 851.69L1426.3 801.69zM1426.3 851.69L1469.6 876.69L1469.6 926.69L1426.3 951.69L1383 926.69L1383 876.69z" stroke="rgba(146, 219, 137, 0.1)" stroke-width="2"></path></g><defs><mask id="SvgjsMask1016"><rect width="1440" height="900" fill="#ffffff"></rect></mask></defs></svg>