<svg xmlns="http://www.w3.org/2000/svg" version="1.1" xmlns:xlink="http://www.w3.org/1999/xlink" xmlns:svgjs="http://svgjs.dev/svgjs" width="1440" height="800" preserveAspectRatio="none" viewBox="0 0 1440 800"><g mask="url(&quot;#SvgjsMask1022&quot;)" fill="none"><rect width="1440" height="800" x="0" y="0" fill="rgba(210, 224, 237, 1)"></rect><path d="M 0,7 C 96,47.6 288,200.8 480,210 C 672,219.2 768,44 960,53 C 1152,62 1344,214.6 1440,255L1440 800L0 800z" fill="rgba(226, 236, 248, 1)"></path><path d="M 0,401 C 57.6,396.4 172.8,373.4 288,378 C 403.2,382.6 460.8,442.8 576,424 C 691.2,405.2 748.8,277.6 864,284 C 979.2,290.4 1036.8,449.8 1152,456 C 1267.2,462.2 1382.4,343.2 1440,315L1440 800L0 800z" fill="rgba(233, 244, 255, 1)"></path><path d="M 0,576 C 96,619.6 288,798.4 480,794 C 672,789.6 768,577.4 960,554 C 1152,530.6 1344,652.4 1440,677L1440 800L0 800z" fill="rgba(251, 253, 255, 1)"></path></g><defs><mask id="SvgjsMask1022"><rect width="1440" height="800" fill="#ffffff"></rect></mask></defs></svg>